name Walk6.mot
datacolumns 19
datarows 10
range 2.56200000 2.57100000
endheader

                time	   L_ground_force_vx	   L_ground_force_vy	   L_ground_force_vz	   L_ground_force_px	   L_ground_force_py	   L_ground_force_pz	   R_ground_force_vx	   R_ground_force_vy	   R_ground_force_vz	   R_ground_force_px	   R_ground_force_py	   R_ground_force_pz	   L_ground_torque_x	   L_ground_torque_y	   L_ground_torque_z	   R_ground_torque_x	   R_ground_torque_y	   R_ground_torque_z	
          2.56200000	          0.00000000	          0.00000000	         -0.00000000	         -0.00000000	          0.00000000	         -0.00000000	         24.96725774	        109.20191057	          3.00265548	          0.22908772	          0.00000000	          0.10285800	          0.00000000	          0.00000000	          0.00000000	          0.00000000	         -6.86852744	          0.00000000	
          2.56300000	          0.00000000	          0.00000000	         -0.00000000	         -0.00000000	          0.00000000	         -0.00000000	         23.78215588	        103.46823808	          2.95090737	          0.22638061	          0.00000000	          0.10153459	          0.00000000	          0.00000000	          0.00000000	          0.00000000	         -6.62014835	          0.00000000	
          2.56400000	          0.00000000	         -0.00000000	         -0.00000000	         -0.00000000	          0.00000000	         -0.00000000	         22.61445091	         97.88473222	          2.89304738	          0.22350683	          0.00000000	          0.10013824	          0.00000000	          0.00000000	          0.00000000	          0.00000000	         -6.37236269	          0.00000000	
          2.56500000	          0.00000000	         -0.00000000	         -0.00000000	         -0.00000000	          0.00000000	         -0.00000000	         21.46575687	         92.45385175	          2.82957986	          0.22046343	          0.00000000	          0.09866790	          0.00000000	          0.00000000	          0.00000000	          0.00000000	         -6.12554622	          0.00000000	
          2.56600000	          0.00000000	         -0.00000000	         -0.00000000	         -0.00000000	          0.00000000	         -0.00000000	         20.33763852	         87.17772640	          2.76101893	          0.21724794	          0.00000000	          0.09712276	          0.00000000	          0.00000000	          0.00000000	          0.00000000	         -5.88007275	          0.00000000	
          2.56700000	          0.00000000	         -0.00000000	         -0.00000000	         -0.00000000	          0.00000000	         -0.00000000	         19.23160494	         82.05814886	          2.68788503	          0.21385846	          0.00000000	          0.09550227	          0.00000000	          0.00000000	          0.00000000	          0.00000000	         -5.63631339	          0.00000000	
          2.56800000	          0.00000000	         -0.00000000	         -0.00000000	         -0.00000000	          0.00000000	         -0.00000000	         18.14910291	         77.09656919	          2.61070163	          0.21029369	          0.00000000	          0.09380620	          0.00000000	          0.00000000	          0.00000000	          0.00000000	         -5.39463574	          0.00000000	
          2.56900000	          0.00000000	         -0.00000000	         -0.00000000	         -0.00000000	          0.00000000	         -0.00000000	         17.09150995	         72.29409174	          2.52999209	          0.20655306	          0.00000000	          0.09203462	          0.00000000	          0.00000000	          0.00000000	          0.00000000	         -5.15540274	          0.00000000	
          2.57000000	         -0.00000000	         -0.00000000	         -0.00000000	         -0.00000000	          0.00000000	         -0.00000000	         16.06012685	         67.65147512	          2.44627648	          0.20263674	          0.00000000	          0.09018798	          0.00000000	          0.00000000	          0.00000000	          0.00000000	         -4.91897118	          0.00000000	
          2.57100000	         -0.00000000	         -0.00000000	         -0.00000000	         -0.00000000	          0.00000000	         -0.00000000	         15.05616959	         63.16913506	          2.36006849	          0.19854574	          0.00000000	          0.08826714	          0.00000000	          0.00000000	          0.00000000	          0.00000000	         -4.68568982	          0.00000000	
